:SAMPLES-PER-SECOND 30
:FULLY-SPECIFIED
:DEGREES
185
root  -20.04 39.3654 3.28476 154.807 87.8873 161.432
RightUpLeg  13.8268 -9.39248 -2.14581
RightLeg  11.287 1.96148 1.31476
RightFoot  -16.2421 -0.26503 -3.74951
RightToes  -5.8209e-011 0 -3.6325e-017
Spine  0.674743 0.421979 8.07471
Spine1  14.143 2.12829 -4.93335
HEad  -13.7777 1.4339 -5.87161
LeftShoulder1  -0.318183 4.40021 -29.3377
LeftArm  -16.2681 6.38316 -34.749
LeftForeArm  85.0849 -78.4878 -106.565
LeftHand  -0.0410891 1.34833 1.00886
RightShoulder  -0.472334 -4.88501 27.3281
RightArm  -14.3897 -10.2939 37.7221
RightForeArm  113.957 69.3669 147.035
RightHand  -0.185087 -0.349433 -4.25616
LeftUpLeg  -13.3252 2.82463 0.762154
LeftLeg  -3.07639 -2.22659 -0.24668
LeftFoot  -1.37698 0.644037 -7.28547
LeftToes  -8.31281e-010 4.41007e-011 3.74621e-011
186
root  -18.9235 39.1249 3.18202 160.918 88.1896 167.439
RightUpLeg  15.7711 -9.30139 -2.16173
RightLeg  11.0587 2.19157 1.13031
RightFoot  -17.8589 -0.303601 -3.20058
RightToes  -5.8209e-011 0 -3.6325e-017
Spine  0.456306 0.439829 7.55703
Spine1  14.2141 2.05577 -4.71936
HEad  -13.8144 1.46267 -5.92462
LeftShoulder1  -0.39367 4.60335 -29.6562
LeftArm  -16.3653 6.27053 -34.0999
LeftForeArm  85.8211 -78.4077 -107.644
LeftHand  -0.0466152 1.2341 1.20497
RightShoulder  -0.392092 -4.65772 26.9822
RightArm  -14.1933 -10.9886 38.3567
RightForeArm  115.582 69.137 147.609
RightHand  -0.149582 0.0725672 -3.19115
LeftUpLeg  -14.2039 2.85841 0.718942
LeftLeg  -2.82795 -0.711299 -0.389308
LeftFoot  -0.987528 0.517285 -5.64904
LeftToes  -8.31281e-010 4.41007e-011 3.74621e-011
187
root  -17.7508 38.7962 3.05393 173.054 88.2598 179.809
RightUpLeg  18.029 -9.35243 -2.25131
RightLeg  11.2659 2.27232 0.954854
RightFoot  -19.732 -0.328757 -2.67262
RightToes  -5.8209e-011 0 -3.6325e-017
Spine  0.584515 0.514801 7.152
Spine1  14.3518 2.11856 -4.47293
HEad  -13.7316 1.88313 -5.23693
LeftShoulder1  -0.378293 4.55897 -29.7014
LeftArm  -16.5502 5.953 -33.8912
LeftForeArm  86.338 -78.3602 -108.297
LeftHand  -0.0531391 1.50213 1.36288
RightShoulder  -0.369923 -4.59211 26.9417
RightArm  -14.2226 -11.5147 38.5618
RightForeArm  114.01 69.053 147.571
RightHand  -0.250622 -0.337123 -5.75163
LeftUpLeg  -15.6309 2.64661 0.526636
LeftLeg  2.65528 2.19178 -0.0118957
LeftFoot  -0.05861 0.309216 -3.1001
LeftToes  -8.31281e-010 4.41007e-011 3.74621e-011
188
root  -16.5141 38.5125 2.89464 150.67 88.9261 157.537
RightUpLeg  20.13 -9.40519 -3.16677
RightLeg  11.526 3.28118 0.730004
RightFoot  -21.2888 -0.292323 -1.69389
RightToes  -5.8209e-011 0 -3.6325e-017
Spine  0.376267 0.878681 6.86339
Spine1  14.7658 2.79002 -5.29437
HEad  -12.8166 2.52957 -3.59196
LeftShoulder1  -0.391207 4.60573 -29.3443
LeftArm  -16.5323 5.82563 -33.8093
LeftForeArm  87.8183 -78.25 -109.837
LeftHand  -0.0561527 1.38726 1.43071
RightShoulder  -0.393968 -4.65568 27.2047
RightArm  -14.0181 -12.374 38.4365
RightForeArm  114.721 69.0935 147.581
RightHand  -0.196119 0.0634307 -4.18309
LeftUpLeg  -16.7732 3.07872 0.000444386
LeftLeg  8.35322 4.17569 0.664679
LeftFoot  2.75166 0.00128085 -0.250701
LeftToes  -8.31281e-010 4.41007e-011 3.74621e-011
189
root  -15.226 38.2831 2.67628 80.5802 89.1546 87.8141
RightUpLeg  22.3855 -9.38807 -4.97698
RightLeg  12.1051 4.76598 0.547762
RightFoot  -22.2347 -0.181916 -0.348097
RightToes  -5.8209e-011 0 -3.6325e-017
Spine  0.285863 1.19242 5.73172
Spine1  15.2489 3.28951 -5.73793
HEad  -13.0416 3.00782 -3.37049
LeftShoulder1  -0.43431 4.7228 -29.466
LeftArm  -16.7502 6.32029 -33.0832
LeftForeArm  90.8386 -77.9916 -113.029
LeftHand  -0.0617984 0.835714 1.48495
RightShoulder  -0.37942 -4.60554 27.392
RightArm  -13.2832 -12.394 38.3199
RightForeArm  113.475 69.5581 146.65
RightHand  -0.226677 -0.00291787 -5.01576
LeftUpLeg  -16.9482 4.07228 -0.884231
LeftLeg  12.1042 4.13753 1.00761
LeftFoot  8.59196 -0.386677 1.97449
LeftToes  -8.31281e-010 4.41007e-011 3.74621e-011
190
root  -13.8822 38.0369 2.46711 75.2829 87.8533 82.8302
RightUpLeg  23.7848 -8.44352 -6.73231
RightLeg  14.4867 4.74013 0.325639
RightFoot  -23.0771 0.0847718 2.33126
RightToes  -5.8209e-011 0 -3.6325e-017
Spine  0.271718 1.30161 3.58145
Spine1  15.3107 3.40684 -5.5742
HEad  -12.8793 3.4553 -3.22862
LeftShoulder1  -0.484954 4.85941 -29.6187
LeftArm  -16.6372 6.67058 -32.4532
LeftForeArm  91.469 -77.9128 -113.827
LeftHand  -0.0510213 0.636259 1.17116
RightShoulder  -0.427563 -4.73192 27.8635
RightArm  -12.556 -12.9651 38.0856
RightForeArm  112.999 69.9438 145.904
RightHand  -0.182992 -1.55212 -5.49032
LeftUpLeg  -17.9228 4.6863 -2.64663
LeftLeg  18.5787 3.23586 1.57859
LeftFoot  6.8045 -0.740298 4.3813
LeftToes  -8.31281e-010 4.41007e-011 3.74621e-011
191
root  -12.6187 37.914 2.25428 85.1311 86.9721 92.934
RightUpLeg  24.2293 -6.1411 -7.49894
RightLeg  18.0973 3.24516 0.610728
RightFoot  -22.5326 0.51929 6.89306
RightToes  -5.8209e-011 0 -3.6325e-017
Spine  0.570124 1.2331 1.94263
Spine1  15.0831 3.34222 -5.9315
HEad  -12.1603 3.41507 -3.73253
LeftShoulder1  -0.502435 4.9085 -29.602
LeftArm  -16.4383 7.16833 -32.3595
LeftForeArm  90.1672 -78.0165 -112.597
LeftHand  -0.0455411 1.21126 1.0966
RightShoulder  -0.432039 -4.73197 28.222
RightArm  -11.8367 -14.0438 37.8951
RightForeArm  112.734 70.418 144.988
RightHand  -0.229789 0.756666 -4.39187
LeftUpLeg  -17.7907 4.49817 -3.89276
LeftLeg  22.951 3.33768 1.88042
LeftFoot  3.51906 -0.709349 5.26875
LeftToes  -8.31281e-010 4.41007e-011 3.74621e-011
192
root  -11.5059 37.9739 1.98885 78.8066 86.0343 86.6318
RightUpLeg  22.4492 -4.56372 -9.1046
RightLeg  24.4045 3.32506 1.47543
RightFoot  -19.6943 0.811454 13.2928
RightToes  -5.8209e-011 0 -3.6325e-017
Spine  0.769608 1.52365 0.694533
Spine1  15.3404 3.59749 -6.78388
HEad  -12.1326 3.55108 -4.84789
LeftShoulder1  -0.507367 4.90533 -30.0366
LeftArm  -16.3007 7.45824 -32.3844
LeftForeArm  88.4401 -78.2357 -110.209
LeftHand  -0.0543695 1.13344 1.33091
RightShoulder  -0.461918 -4.8092 28.4607
RightArm  -11.218 -14.7527 37.431
RightForeArm  111.89 70.8789 143.97
RightHand  -0.214552 0.0295025 -4.6263
LeftUpLeg  -16.4341 5.35035 -5.16849
LeftLeg  24.1869 3.30989 1.96497
LeftFoot  1.0505 -0.645709 5.87184
LeftToes  -8.31281e-010 4.41007e-011 3.74621e-011
193
root  -10.4382 38.1085 1.69322 68.0436 85.2497 75.7182
RightUpLeg  17.9082 -3.39919 -10.7493
RightLeg  34.0523 3.6154 2.38645
RightFoot  -12.8304 0.18697 16.9801
RightToes  -5.8209e-011 0 -3.6325e-017
Spine  0.936717 1.83691 0.330565
Spine1  15.3938 3.98763 -7.90148
HEad  -11.8953 3.80395 -5.6713
LeftShoulder1  -0.408666 4.64401 -29.695
LeftArm  -16.6029 8.49084 -32.9932
LeftForeArm  88.1435 -78.2931 -109.599
LeftHand  -0.0384687 1.56071 0.926792
RightShoulder  -0.520675 -4.96695 28.749
RightArm  -10.4731 -14.4073 36.9707
RightForeArm  109.671 71.5371 142.298
RightHand  -0.237661 0.0530814 -5.10689
LeftUpLeg  -14.7924 5.90424 -6.05435
LeftLeg  24.4595 3.77759 2.21964
LeftFoot  -1.01679 -0.522996 5.8488
LeftToes  -8.31281e-010 4.41007e-011 3.74621e-011
194
root  -9.40571 38.2998 1.45091 60.9407 84.5027 68.364
RightUpLeg  11.4619 -2.13386 -11.7983
RightLeg  44.9111 3.42421 3.33841
RightFoot  -2.535 -1.01074 13.0256
RightToes  -5.8209e-011 0 -3.6325e-017
Spine  1.10076 1.90534 -0.69131
Spine1  15.1867 3.86566 -7.66988
HEad  -12.0344 4.10506 -6.4373
LeftShoulder1  -0.416667 4.66634 -29.686
LeftArm  -16.894 9.30952 -32.9473
LeftForeArm  89.9268 -78.184 -111.187
LeftHand  -0.0352425 1.51436 0.811261
RightShoulder  -0.464848 -4.81585 28.5155
RightArm  -9.9569 -13.9919 36.9169
RightForeArm  108.686 71.8747 141.407
RightHand  -0.233724 0.0916713 -4.99741
LeftUpLeg  -12.9054 6.29215 -6.72642
LeftLeg  23.871 4.29709 2.42808
LeftFoot  -2.60768 -0.426408 5.78779
LeftToes  -8.31281e-010 4.41007e-011 3.74621e-011
195
root  -8.48774 38.4521 1.22567 52.7809 83.4027 60.0924
RightUpLeg  5.24325 -0.531565 -12.607
RightLeg  53.7818 2.75063 3.63104
RightFoot  2.17639 -1.11717 9.37434
RightToes  -5.8209e-011 0 -3.6325e-017
Spine  1.63601 2.13888 -1.67377
Spine1  15.2069 3.89386 -7.8278
HEad  -12.6505 4.66521 -7.05374
LeftShoulder1  -0.43762 4.71945 -29.8476
LeftArm  -17.1345 9.57155 -32.5418
LeftForeArm  91.0072 -78.093 -112.302
LeftHand  -0.0477478 0.963898 1.13094
RightShoulder  -0.436103 -4.7451 28.1857
RightArm  -9.73408 -13.5407 36.982
RightForeArm  109.079 71.6962 141.863
RightHand  -0.206873 -0.706651 -5.07189
LeftUpLeg  -10.9367 7.27101 -7.45712
LeftLeg  22.9692 4.72398 2.51874
LeftFoot  -3.90086 -0.356722 5.8423
LeftToes  -8.31281e-010 4.41007e-011 3.74621e-011
